HIERARCHY
ROOT Hips
{
	OFFSET 0.000000 0.000000 0.000000
	CHANNELS 6 Xposition Yposition Zposition Xrotation Yrotation Zrotation
	JOINT LeftUpLeg_virtual
	{
		OFFSET 0.000000 0.000000 0.000000
		CHANNELS 3 Xrotation Yrotation Zrotation
		JOINT LeftUpLeg
		{
			OFFSET 10.205400 -3.823500 0.155100
			CHANNELS 3 Xrotation Yrotation Zrotation
			JOINT LeftLeg
			{
				OFFSET 0.708757 -12.982077 0.567790
				CHANNELS 3 Xrotation Yrotation Zrotation
				JOINT LeftFoot
				{
					OFFSET -0.708756 -10.717838 -2.184338
					CHANNELS 3 Xrotation Yrotation Zrotation
					JOINT LeftToeBase
					{
						OFFSET 0.108149 -7.191104 7.560241
						CHANNELS 3 Xrotation Yrotation Zrotation
						JOINT LeftToe_End
						{
							OFFSET 0.070230 0.081724 4.490308
							CHANNELS 3 Xrotation Yrotation Zrotation
							End Site
							{
								OFFSET 0 0 0
							}
						}
					}
				}
			}
		}
	}
	JOINT RightUpLeg_virtual
	{
		OFFSET 0.000000 0.000000 0.000000
		CHANNELS 3 Xrotation Yrotation Zrotation
		JOINT RightUpLeg
		{
			OFFSET -10.205400 -3.823500 0.005500
			CHANNELS 3 Xrotation Yrotation Zrotation
			JOINT RightLeg
			{
				OFFSET -0.708756 -12.982134 0.610632
				CHANNELS 3 Xrotation Yrotation Zrotation
				JOINT RightFoot
				{
					OFFSET 0.708754 -10.717769 -1.945823
					CHANNELS 3 Xrotation Yrotation Zrotation
					JOINT RightToeBase
					{
						OFFSET -0.108140 -7.191069 7.372968
						CHANNELS 3 Xrotation Yrotation Zrotation
						JOINT RightToe_End
						{
							OFFSET -0.070227 0.081735 4.479403
							CHANNELS 3 Xrotation Yrotation Zrotation
							End Site
							{
								OFFSET 0 0 0
							}
						}
					}
				}
			}
		}
	}
	JOINT Spine_virtual
	{
		OFFSET 0.000000 0.000000 0.000000
		CHANNELS 3 Xrotation Yrotation Zrotation
		JOINT Spine
		{
			OFFSET 0.000000 6.876099 0.125700
			CHANNELS 3 Xrotation Yrotation Zrotation
			JOINT Spine1
			{
				OFFSET 0.000000 5.730043 0.104720
				CHANNELS 3 Xrotation Yrotation Zrotation
				JOINT Spine1_split
				{
					OFFSET 0.000000 5.730043 0.104720
					CHANNELS 3 Xrotation Yrotation Zrotation
					JOINT Spine2
					{
						OFFSET 0.000000 5.730043 0.104720
						CHANNELS 3 Xrotation Yrotation Zrotation
						JOINT Neck_virtual
						{
							OFFSET 0.000000 0.000000 0.000000
							CHANNELS 3 Xrotation Yrotation Zrotation
							JOINT Neck
							{
								OFFSET 0.000000 10.314075 0.188496
								CHANNELS 3 Xrotation Yrotation Zrotation
								JOINT Head
								{
									OFFSET 0.000000 7.643700 -2.377400
									CHANNELS 3 Xrotation Yrotation Zrotation
									JOINT HeadTop_End
									{
										OFFSET 0.000000 43.788605 -13.619600
										CHANNELS 3 Xrotation Yrotation Zrotation
										End Site
										{
											OFFSET 0 0 0
										}
									}
								}
							}
						}
						JOINT LeftShoulder_virtual
						{
							OFFSET 0.000000 0.000000 0.000000
							CHANNELS 3 Xrotation Yrotation Zrotation
							JOINT LeftShoulder
							{
								OFFSET 2.196100 4.412489 0.087492
								CHANNELS 3 Xrotation Yrotation Zrotation
								JOINT LeftShoulder_split
								{
									OFFSET 2.196100 4.412489 0.087492
									CHANNELS 3 Xrotation Yrotation Zrotation
									JOINT LeftArm
									{
										OFFSET 8.771219 -2.981674 -0.026999
										CHANNELS 3 Xrotation Yrotation Zrotation
										JOINT LeftForeArm
										{
											OFFSET 8.512804 0.000000 -0.000000
											CHANNELS 3 Xrotation Yrotation Zrotation
											JOINT LeftHand
											{
												OFFSET 18.484802 0.000000 -0.000000
												CHANNELS 3 Xrotation Yrotation Zrotation
												End Site
												{
													OFFSET 0 0 0
												}
											}
										}
									}
								}
							}
						}
						JOINT RightShoulder_virtual
						{
							OFFSET 0.000000 0.000000 0.000000
							CHANNELS 3 Xrotation Yrotation Zrotation
							JOINT RightShoulder
							{
								OFFSET -2.196100 4.412496 0.070690
								CHANNELS 3 Xrotation Yrotation Zrotation
								JOINT RightShoulder_split
								{
									OFFSET -2.196100 4.412496 0.070690
									CHANNELS 3 Xrotation Yrotation Zrotation
									JOINT RightArm
									{
										OFFSET -8.771282 -2.981682 -0.094208
										CHANNELS 3 Xrotation Yrotation Zrotation
										JOINT RightForeArm
										{
											OFFSET -8.494598 0.000000 0.000000
											CHANNELS 3 Xrotation Yrotation Zrotation
											JOINT RightHand
											{
												OFFSET -18.483803 0.000000 0.000001
												CHANNELS 3 Xrotation Yrotation Zrotation
												End Site
												{
													OFFSET 0 0 0
												}
											}
										}
									}
								}
							}
						}
					}
				}
			}
		}
	}
}
MOTION
Frames: 8
Frame Time: 0.03333333
0.576708 26.956642 0.781296 0.000000 0.000000 0.000000 -14.699293 -76.487409 -10.980669 -39.768210 16.928315 59.397115 41.281421 0.632677 -6.649165 2.459811 -5.054867 -34.444094 -2.467242 0.003861 0.378501 0.000000 0.000000 0.000000 -17.329807 -74.614578 -12.294783 -25.956662 -2.144242 -29.730027 57.779302 13.339318 -8.879470 -29.816074 -6.772383 23.484723 5.392882 1.372459 0.980902 0.000000 0.000000 0.000000 -16.894828 -76.488502 -12.497619 5.280225 -2.343507 -2.331209 3.892299 -0.294512 -3.376892 0.515434 0.751592 0.284527 0.000000 0.000000 0.000000 5.605125 0.058220 -3.025661 -6.123743 21.212887 6.194693 2.054121 19.244364 -8.799251 0.000000 0.000000 0.000000 5.940341 -0.219018 -3.370785 0.026147 -5.110225 -18.306560 -1.884141 -1.739222 -1.085335 -44.432249 -22.819780 -5.423914 -6.459002 -32.846626 -4.365570 0.000000 0.000000 0.000000 4.960543 -0.147251 -2.946874 2.034382 16.095069 5.838675 8.217116 3.689510 2.068230 20.174873 74.614762 -8.373034 74.589962 86.686302 -85.539848 0.000000 0.000000 0.000000 
0.541963 27.071972 0.813898 0.000000 0.000000 0.000000 -15.881529 -76.405611 -12.476308 -38.922472 16.418458 59.586413 41.098594 0.631164 -6.595013 2.845396 -4.793273 -33.940508 -1.961626 -0.013209 0.441049 0.000000 0.000000 0.000000 -18.708730 -74.887068 -13.797540 -25.786674 -1.889780 -29.253089 56.437307 13.405058 -8.470151 -29.266080 -6.846801 23.789049 4.492733 1.523973 0.959603 0.000000 0.000000 0.000000 -17.570667 -76.924022 -13.490797 4.793846 -2.210939 -2.153310 3.665306 -0.276213 -3.330584 -0.013783 0.663355 0.292570 0.000000 0.000000 0.000000 5.455294 -0.071392 -2.940508 -5.774534 21.356813 6.210144 2.565336 19.752548 -9.262436 0.000000 0.000000 0.000000 5.618725 -0.220663 -3.261627 -0.061102 -5.095864 -18.504115 -1.979517 -0.553045 -1.810355 -44.449672 -22.912337 -5.989261 -6.139378 -34.487350 -4.095466 0.000000 0.000000 0.000000 4.821088 -0.172656 -2.956761 2.032314 16.137539 5.635472 8.744424 1.729946 1.917245 18.662018 74.261751 -6.133477 60.982722 86.799123 -71.869498 0.000000 0.000000 0.000000 
0.567100 27.335670 0.800459 0.000000 0.000000 0.000000 -19.133175 -76.918182 -16.100038 -36.796203 15.994041 59.404211 39.807763 1.148462 -6.564014 3.437428 -4.163738 -32.454457 -1.771873 -0.104348 0.458731 0.000000 0.000000 0.000000 -21.154271 -75.668285 -16.604752 -25.710191 -2.109110 -28.866657 54.239447 13.664967 -7.903658 -27.470594 -6.242565 24.158683 4.241396 1.687189 0.984721 0.000000 0.000000 0.000000 -20.630894 -77.656642 -16.973454 4.363907 -1.795129 -1.699938 3.766638 -0.277977 -3.120153 -0.150619 -0.010172 0.061419 0.000000 0.000000 0.000000 5.609261 -0.198994 -2.740895 -5.908230 21.630010 6.451603 3.191785 21.236153 -9.837575 0.000000 0.000000 0.000000 5.526376 -0.272674 -3.001688 -0.340261 -5.329974 -18.906737 -2.764089 0.335437 -2.073229 -42.376191 -21.709143 -7.360981 -6.079591 -36.182329 -4.350592 0.000000 0.000000 0.000000 4.869805 -0.177704 -2.786523 2.040703 15.555974 5.763770 7.952370 0.981443 1.928772 15.924040 71.795185 -1.443099 38.151070 85.967739 -48.634830 0.000000 0.000000 0.000000 
0.609129 27.685350 0.740721 0.000000 0.000000 0.000000 -24.244071 -77.847416 -21.568839 -33.738464 15.663290 58.909098 37.861204 1.902261 -6.581362 4.342481 -3.596630 -30.639020 -2.324513 -0.286809 0.592185 0.000000 0.000000 0.000000 -24.106488 -76.382743 -20.066775 -25.429433 -2.692794 -28.490853 51.758292 13.764733 -7.275074 -25.127696 -5.319879 24.385575 4.465725 1.831281 1.090428 0.000000 0.000000 0.000000 -25.060116 -78.078262 -21.826349 4.149302 -1.199440 -1.074412 4.131614 -0.304966 -2.769169 0.380916 -0.904921 0.289842 0.000000 0.000000 0.000000 5.853858 -0.303361 -2.486695 -6.373635 21.810527 6.859952 3.932771 23.439592 -10.464123 0.000000 0.000000 0.000000 5.691603 -0.361878 -2.682066 -0.736712 -6.033330 -19.598478 -3.546327 0.697095 -2.038951 -37.906389 -19.922391 -9.514469 -6.154857 -38.763127 -4.971235 0.000000 0.000000 0.000000 5.110216 -0.132136 -2.493173 2.061882 14.649712 6.303595 6.264756 1.549292 1.880180 13.291341 67.504754 4.402571 22.245796 84.091998 -31.964350 0.000000 0.000000 0.000000 
0.641455 28.066677 0.721725 0.000000 0.000000 0.000000 -29.852605 -78.653351 -27.409226 -30.104291 15.508491 58.152716 35.723529 2.643598 -6.667571 5.272014 -3.305688 -28.989440 -3.645466 -0.542206 0.963794 0.000000 0.000000 0.000000 -25.744088 -76.377566 -22.224701 -24.545702 -3.499645 -28.061871 49.294107 13.384014 -6.760019 -22.877534 -4.682144 24.422774 4.131529 1.901469 1.241996 0.000000 0.000000 0.000000 -29.608214 -77.940593 -26.626273 4.263370 -0.622721 -0.414432 4.583064 -0.378821 -2.324292 0.795732 -1.477025 0.909095 0.000000 0.000000 0.000000 5.991227 -0.407815 -2.213197 -6.882815 21.958307 7.357549 4.808232 25.754999 -10.998010 0.000000 0.000000 0.000000 6.032965 -0.511388 -2.374635 -1.191291 -7.261168 -20.547338 -3.316533 0.556366 -1.883591 -30.760146 -18.416364 -11.947732 -6.106052 -43.041615 -5.599440 0.000000 0.000000 0.000000 5.449460 -0.062783 -2.123805 2.020312 13.483063 7.358568 4.189709 2.901098 1.758445 11.599405 62.125256 10.061696 12.786106 81.037285 -21.402032 0.000000 0.000000 0.000000 
0.682824 28.391584 0.683661 0.000000 0.000000 0.000000 -33.169325 -78.860244 -30.819688 -26.300110 15.448314 57.089118 33.445217 3.500921 -6.867790 5.607855 -3.199651 -27.656005 -4.894543 -0.823671 1.417272 0.000000 0.000000 0.000000 -24.692483 -75.436817 -21.632713 -22.806758 -4.184476 -27.583953 46.992999 12.496370 -6.527754 -21.179983 -4.678361 24.423587 3.038764 1.846872 1.425752 0.000000 0.000000 0.000000 -32.524029 -77.254822 -29.481094 4.684596 -0.210081 0.143147 4.964074 -0.540525 -1.816345 0.706197 -1.633964 1.219009 0.000000 0.000000 0.000000 5.886361 -0.542586 -1.910859 -7.042123 22.100202 7.838235 5.677511 27.835290 -11.357805 0.000000 0.000000 0.000000 6.438326 -0.733680 -2.098198 -1.594273 -8.870454 -21.436733 -3.035192 0.004491 -1.781942 -21.866244 -18.860802 -13.866416 -5.698756 -49.430236 -5.872090 0.000000 0.000000 0.000000 5.784176 -0.012034 -1.683029 1.866317 12.230033 9.034005 2.096535 3.794579 1.404383 10.923839 56.696567 14.761062 7.332548 76.379355 -14.550688 0.000000 0.000000 0.000000 
0.721470 28.639343 0.605198 0.000000 0.000000 0.000000 -32.564908 -78.425325 -30.196256 -22.671505 15.347041 55.700900 30.789981 4.355478 -7.108350 5.019160 -3.233861 -27.214274 -5.591093 -1.070659 1.915754 0.000000 0.000000 0.000000 -21.554147 -73.745894 -18.772819 -20.415878 -4.582137 -27.225423 44.808274 11.364175 -6.534200 -20.079226 -5.328911 24.589687 2.151778 1.690910 1.678808 0.000000 0.000000 0.000000 -33.167873 -76.258775 -29.842910 5.376136 -0.103296 0.494826 5.143183 -0.886828 -1.281604 0.551407 -1.647609 1.625493 0.000000 0.000000 0.000000 5.561189 -0.815909 -1.572395 -6.656998 22.450598 8.175733 6.369835 29.734802 -11.566667 0.000000 0.000000 0.000000 6.755524 -1.092314 -1.810212 -1.909287 -10.735361 -21.795450 -2.974437 -0.449750 -2.531512 -12.794080 -22.354033 -14.113806 -4.884913 -57.791139 -5.423078 0.000000 0.000000 0.000000 5.974211 -0.152952 -1.134005 1.560292 11.053517 11.296426 -0.025109 3.680987 0.886026 10.655868 52.143361 18.573222 4.877554 70.374601 -10.356903 0.000000 0.000000 0.000000 
0.785549 28.830606 0.605333 0.000000 0.000000 0.000000 -27.921605 -77.439647 -25.542654 -19.705869 15.006463 54.109588 27.784783 5.093194 -7.343912 3.977833 -3.415732 -28.077274 -5.383334 -1.223283 2.378140 0.000000 0.000000 0.000000 -17.582123 -71.790117 -14.911278 -17.965662 -4.742463 -27.214517 42.784483 10.136271 -6.599845 -19.071814 -6.543923 25.234395 2.073608 1.456655 1.978040 0.000000 0.000000 0.000000 -31.687956 -75.311688 -27.963073 6.114425 -0.416031 0.611505 5.116735 -1.535126 -0.744214 0.369542 -1.905544 1.850271 0.000000 0.000000 0.000000 5.142326 -1.316220 -1.140879 -5.821285 23.292086 8.260441 6.805726 31.550860 -11.737714 0.000000 0.000000 0.000000 6.829135 -1.669237 -1.422221 -2.004672 -12.539446 -21.056075 -2.676548 -0.657970 -3.387313 -5.656762 -29.392121 -11.790343 -3.167507 -66.915029 -3.605928 0.000000 0.000000 0.000000 5.996296 -0.645396 -0.484317 1.162578 10.012050 13.989634 -1.923378 2.778071 0.236159 10.151617 48.868607 21.694072 4.562764 64.193096 -7.954355 0.000000 0.000000 0.000000 
